# xmcd
#
# Track frame offsets: 
#        150
#        12485
#        21397
#        32257
#        42415
#        53010
#        63707
#        74545
#        85590
#        96687
#        109055
#        120522
#        132892
#        144567
#        155600
#        166457
#        177517
#        188117
#        198397
#        210520
#        220582
#        231735
#        242577
#        255235
#
# Disc length: 3574 seconds
#
# Revision: 2
# Processed by: cddbd v1.5.2PL0 Copyright (c) Steve Scherf et al.
# Submitted via: ExactAudioCopy v0.95b4
#
DISCID=5c0df418
DTITLE=Spiders - The Imperial Sessions disc 1
DYEAR=1900
DGENRE=
TTITLE0=I Didn't Want To Do It 
TTITLE1=You're The One 
TTITLE2=For A Thrill 
TTITLE3=Mellow Mama 
TTITLE4=Lost And Bewildered (Slowly Loosing My Mind) 
TTITLE5=Tears Begin To Flow (Sneaky Pete) 
TTITLE6=Why Do I Love You 
TTITLE7=Love's All I'm Puttin' Down 
TTITLE8=I'll Stop Crying 
TTITLE9=Mmm Mmm Baby (Hey Baby) 
TTITLE10=I'm Slipping In 
TTITLE11=Mmm Mmm Baby 
TTITLE12=Walking Around In Circles 
TTITLE13=I'm Searchin' 
TTITLE14=The Real Thing 
TTITLE15=She Keeps Me Wondering 
TTITLE16=21 (3x7=21) 
TTITLE17=That's Enough 
TTITLE18=Sukey, Sukey, Sukey 
TTITLE19=Bells In My Heart 
TTITLE20=Am I The One 
TTITLE21=Don't Knock 
TTITLE22=John The Revelator 
TTITLE23=Bye And Bye 
EXTD=
EXTT0=
EXTT1=
EXTT2=
EXTT3=
EXTT4=
EXTT5=
EXTT6=
EXTT7=
EXTT8=
EXTT9=
EXTT10=
EXTT11=
EXTT12=
EXTT13=
EXTT14=
EXTT15=
EXTT16=
EXTT17=
EXTT18=
EXTT19=
EXTT20=
EXTT21=
EXTT22=
EXTT23=
PLAYORDER=
